<?xml version="1.0" encoding="UTF-8" standalone="no"?>
<svg width="1489px" height="512px" viewBox="0 0 1489 512" version="1.1" xmlns="http://www.w3.org/2000/svg" xmlns:xlink="http://www.w3.org/1999/xlink">
    <!-- Generator: Sketch 49.3 (51167) - http://www.bohemiancoding.com/sketch -->
    <title>Logo</title>
    <desc>Created with Sketch.</desc>
    <defs>
        <circle id="path-1" cx="256" cy="256" r="256"></circle>
    </defs>
    <g id="Logo" stroke="none" stroke-width="1" fill="none" fill-rule="evenodd">
        <g id="Disaster-Relief">
            <g id="Logo">
                <mask id="mask-2" fill="white">
                    <use xlink:href="#path-1"></use>
                </mask>
                <use id="Oval" fill="#ED2323" fill-rule="evenodd" xlink:href="#path-1"></use>
                <g id="iconfinder_7_215248" stroke-width="1" fill-rule="evenodd" mask="url(#mask-2)" fill="#FFFFFF">
                    <g transform="translate(103.000000, 105.000000)" fill-rule="nonzero" id="Shape">
                        <path d="M281.575999,177.517241 C291.034431,206.872306 277.845014,267.171769 241.776355,281.372224 C295.633603,166.393752 179.560257,0 74.0523274,0 C118.29935,24.5158707 165.951556,113.476047 101.241037,191.342321 C107.626566,181.547438 109.064907,116.49569 74.1106386,88.7586207 C97.2425616,175.509078 0,194.867703 0,291.10886 C-0.000925573105,367.270228 69.1134694,429 154.360604,429 C265.72556,429 361.26229,292.785103 281.575999,177.517241 Z M140.693591,384.62069 C112.073019,384.62069 87.378729,368.830901 87.378729,340.241379 C87.378729,284.304957 149.566135,325.448276 149.566135,221.896552 C191.911104,250.254931 227.690058,384.62069 140.693591,384.62069 Z"></path>
                    </g>
                </g>
                <text id="DISASTER-RESPONSE-IN" font-family="Anton-Regular, Anton" font-size="120" font-weight="normal" line-spacing="180">
                    <tspan x="651.52" y="137" fill="#ED2323">DISASTER RESPONSE</tspan>
                    <tspan x="1530.52" y="137" fill="#4A4A4A"></tspan>
                    <tspan x="612" y="247.358887" font-size="160" fill="#FFFFFF">INTERNATIONAL</tspan>
                </text>
            </g>
        </g>
    </g>
</svg>