<svg height="512" viewBox="0 0 512 512" width="512" xmlns="http://www.w3.org/2000/svg"><g fill="none" fill-rule="evenodd"><circle cx="256" cy="256" fill="#2dcc70" r="256"/><path d="m116.230827 172.141227h-19.3331203v-15.72864h55.3779203v15.72864h-19.33312v100.92544h-16.71168zm47.684266-15.72864h16.71168v49.9712h20.64384v-49.9712h16.71168v116.65408h-16.71168v-51.93728h-20.64384v51.93728h-16.71168zm74.554027 0h16.71168v116.65408h-16.71168zm36.543147 0h16.05632l25.23136 70.28736h.32768v-70.28736h16.71168v116.65408h-15.72864l-25.55904-70.12352h-.32768v70.12352h-16.71168zm77.666986 0h16.71168v53.248h.32768l24.41216-53.248h16.71168l-22.77376 46.6944 27.0336 69.95968h-17.69472l-19.00544-51.77344-9.0112 16.87552v34.89792h-16.71168z" fill="#1b264f"/><path d="m132.233333 365.226667v-72.9h25.5c9.866716.066667 17.266642 4.166626 22.2 12.3 1.766676 2.733347 2.883331 5.599985 3.35 8.6.366669 3.000015.55 8.183296.55 15.55 0 7.833372-.28333 13.299984-.85 16.4-.266668 1.566674-.666664 2.96666-1.2 4.2-.566669 1.200006-1.249996 2.449993-2.05 3.75-2.133344 3.43335-5.099981 6.266655-8.9 8.5-3.766685 2.400012-8.383306 3.6-13.85 3.6zm11.05-62.45v52h13.2c6.200031 0 10.699986-2.116646 13.5-6.35 1.23334-1.566675 2.016665-3.549988 2.35-5.95.300002-2.366679.45-6.799968.45-13.3 0-6.333365-.149998-10.866653-.45-13.6-.400002-2.733347-1.349992-4.949992-2.85-6.65-3.066682-4.233355-7.399972-6.283334-13-6.15zm51.377778 62.45v-51.9h10.45v51.9zm0-62.45v-10.45h10.45v10.45zm52.027778 57c-3.433351 3.900019-7.899973 5.916666-13.4 6.05-3.366684-.066667-6.166656-.783327-8.4-2.15-2.333345-1.300007-4.116661-2.699993-5.35-4.2-1.366674-1.700009-2.349997-3.783321-2.95-6.25-.633337-2.433346-.95-7.066633-.95-13.9 0-6.966702.316663-11.683321.95-14.15.600003-2.433346 1.583326-4.483325 2.95-6.15 1.233339-1.633342 3.016655-3.099994 5.35-4.4 2.233344-1.23334 5.033316-1.883333 8.4-1.95 5.166692 0 9.633314 2.049979 13.4 6.15v-5.5h10.45v50.65c-.133334 7.800039-2.383312 13.533315-6.75 17.2-4.400022 3.766685-9.666636 5.65-15.8 5.65-7.033369-.133334-13.033309-3.033305-18-8.7l8.1-6.45c1.33334 1.233339 2.866658 2.283329 4.6 3.15 1.766675.966671 3.59999 1.483333 5.5 1.55 3.566684 0 6.433322-.983324 8.6-2.95 2.133344-2.00001 3.233333-4.766649 3.3-8.3zm-20.6-20.45c0 3.966686.133332 6.699992.4 8.2.233334 1.566674.783329 2.866661 1.65 3.9.700003.933338 1.766659 1.783329 3.2 2.55 1.366673.933338 3.066656 1.4 5.1 1.4 2.033343 0 3.733326-.466662 5.1-1.4 1.366673-.766671 2.399996-1.616662 3.1-2.55.866671-1.033339 1.449998-2.333326 1.75-3.9.200001-1.500008.3-4.233314.3-8.2 0-4.033354-.099999-6.833326-.3-8.4-.300002-1.566675-.883329-2.833329-1.75-3.8-.700004-.933338-1.733327-1.849996-3.1-2.75-1.366674-.766671-3.066657-1.183333-5.1-1.25-2.033344.066667-3.733327.483329-5.1 1.25-1.433341.900004-2.499997 1.816662-3.2 2.75-.866671.966671-1.416666 2.233325-1.65 3.8-.266668 1.566674-.4 4.366646-.4 8.4zm43.427778 25.9v-51.9h10.45v51.9zm0-62.45v-10.45h10.45v10.45zm23.427777 10.55v-15.8h10.45v15.8h7.6v7.95h-7.6v30.25c-.066667 2.633346 1.166654 3.916667 3.7 3.85h3.9v9.85h-5.45c-3.666685 0-6.666655-1.133322-9-3.4-2.400012-2.166678-3.6-5.29998-3.6-9.4v-31.15h-5.2v-7.95zm53.677778 51.9v-4.6h-.2c-.966671 1.766675-2.466656 3.066662-4.5 3.9-2.00001.866671-4.766649 1.3-8.3 1.3-5.800029-.066667-10.266651-1.599985-13.4-4.6-3.300016-2.933348-4.95-6.683311-4.95-11.25 0-4.366689 1.433319-7.983319 4.3-10.85 2.866681-2.933348 7.066639-4.433333 12.6-4.5h14.45v-5.45c.066667-4.56669-3.483297-6.783334-10.65-6.65-2.600013 0-4.649992.266664-6.15.8-1.566674.633336-2.799995 1.699992-3.7 3.2l-8.2-6.25c3.966687-5.200026 9.816628-7.733334 17.55-7.6 6.533366-.066667 11.749981 1.166654 15.65 3.7 3.90002 2.600013 5.883333 7.066635 5.95 13.4v35.45zm0-18.25v-3.75h-12.5c-6.066697.133334-9.066667 2.216646-9 6.25 0 1.766675.783326 3.26666 2.35 4.5 1.500008 1.366673 3.983316 2.05 7.45 2.05 4.366689.066667 7.449991-.449995 9.25-1.55 1.633342-1.100006 2.45-3.599981 2.45-7.5zm22.527778 5.65v-60.3h10.45v59.5c0 2.366678 1.299987 3.55 3.9 3.55h3.6v9.85h-4.65c-3.800019 0-6.933321-.949991-9.4-2.85-2.600013-1.933343-3.9-5.183311-3.9-9.75z" fill="#fff"/></g></svg>