<svg height="512" viewBox="0 0 1489 512" width="1489" xmlns="http://www.w3.org/2000/svg" xmlns:xlink="http://www.w3.org/1999/xlink"><defs><circle id="a" cx="256" cy="256" r="256"/><mask id="b" fill="#fff"><use fill="#fff" fill-rule="evenodd" xlink:href="#a"/></mask></defs><g fill="none" fill-rule="evenodd"><use fill="#ed2323" fill-rule="evenodd" xlink:href="#a"/><g fill="#fff" fill-rule="evenodd" mask="url(#b)"><path d="m281.575999 177.517241c9.458432 29.355065-3.730985 89.654528-39.799644 103.854983 53.857248-114.978472-62.216098-281.372224-167.7240276-281.372224 44.2470226 24.5158707 91.8992286 113.476047 27.1887096 191.342321 6.385529-9.794883 7.82387-74.846631-27.1303984-102.5837003 23.131923 86.7504573-74.1106386 106.1090823-74.1106386 202.3502393-.00092557 76.161368 69.1134694 137.89114 154.360604 137.89114 111.364956 0 206.901686-136.214897 127.215395-251.482759zm-140.882408 207.103449c-28.620572 0-53.314862-15.789789-53.314862-44.379311 0-55.936422 62.187406-14.793103 62.187406-118.344827 42.344969 28.358379 78.123923 162.724138-8.872544 162.724138z" fill-rule="nonzero" transform="translate(103 105)"/></g><text font-family="Anton-Regular, Anton" font-size="120"><tspan fill="#ed2323" x="651.52" y="137">DISASTER RESPONSE</tspan> <tspan fill="#4a4a4a" x="1530.52" y="137"/><tspan fill="#fff" font-size="160" x="612" y="247.358887">INTERNATIONAL</tspan></text></g></svg>