<?xml version="1.0" ?><svg id="Layer_1" style="enable-background:new 0 0 64 64;" version="1.1" viewBox="0 0 64 64" xml:space="preserve" xmlns="http://www.w3.org/2000/svg" xmlns:xlink="http://www.w3.org/1999/xlink"><style type="text/css">
	.st0{fill:#F04F4F;}
	.st1{fill:#FFFFFF;}
	.st2{fill:#ED2323;}
	.st3{fill:none;stroke:#D9DCE1;stroke-width:4;stroke-linecap:round;stroke-miterlimit:10;}
	.st4{fill:#D9DCE1;}
	.st5{fill:none;stroke:#D9DCE1;stroke-width:3;stroke-linecap:round;stroke-linejoin:round;stroke-miterlimit:10;}
	.st6{fill:none;stroke:#FFFFFF;stroke-width:2;stroke-miterlimit:10;}
	.st7{fill:none;stroke:#D9DCE1;stroke-width:2;stroke-linecap:square;stroke-miterlimit:10;}
	.st8{fill:none;stroke:#D9DCE1;stroke-width:2;stroke-linecap:square;stroke-miterlimit:10;stroke-dasharray:0.1022,6.1323;}
	.st9{fill:none;stroke:#F04F4F;stroke-width:2;stroke-miterlimit:10;}
	.st10{fill:none;stroke:#ED2323;stroke-width:4;stroke-linecap:round;stroke-miterlimit:10;}
	.st11{fill:none;stroke:#ED2323;stroke-width:3;stroke-miterlimit:10;}
	.st12{fill:none;stroke:#ED2323;stroke-width:2;stroke-miterlimit:10;}
	.st13{fill:none;stroke:#D9DCE1;stroke-width:2;stroke-miterlimit:10;}
	.st14{fill-rule:evenodd;clip-rule:evenodd;fill:#F04F4F;}
	.st15{fill:none;stroke:#ED2323;stroke-width:6;stroke-linecap:round;stroke-miterlimit:10;}
	.st16{fill-rule:evenodd;clip-rule:evenodd;fill:#ED2323;}
	.st17{fill:none;stroke:#ED2323;stroke-width:3;stroke-linecap:round;stroke-miterlimit:10;}
	.st18{fill:none;stroke:#D9DCE1;stroke-width:4;stroke-miterlimit:10;}
	.st19{fill:none;stroke:#F04F4F;stroke-width:9.5204;stroke-linecap:round;stroke-miterlimit:10;}
	.st20{fill:none;stroke:#D9DCE1;stroke-width:9.5204;stroke-linecap:round;stroke-miterlimit:10;}
	.st21{fill:none;stroke:#ED2323;stroke-width:2;stroke-miterlimit:10;stroke-dasharray:2,2;}
	.st22{fill:none;stroke:#D9DCE1;stroke-width:16.2382;stroke-linecap:round;stroke-miterlimit:10;}
	.st23{fill:none;stroke:#D9DCE1;stroke-width:15.9437;stroke-linecap:square;stroke-miterlimit:10;}
	.st24{fill:none;stroke:#77B5D1;stroke-width:17.7335;stroke-linecap:round;stroke-miterlimit:10;}
	.st25{fill:none;stroke:#F04F4F;stroke-width:17.9367;stroke-linecap:square;stroke-miterlimit:10;}
</style><g><path class="st0" d="M54.8,29.5L19.1,45.1c-1,0.5-2.2,0-2.7-1.1L8.2,25.2c-0.5-1,0-2.2,1.1-2.7L44.9,6.9c1-0.5,2.2,0,2.7,1.1   l8.2,18.8C56.3,27.8,55.8,29,54.8,29.5z"/><circle class="st2" cx="32" cy="26" r="9.2"/><circle class="st2" cx="45.2" cy="20.2" r="2.1"/><circle class="st2" cx="18.8" cy="31.8" r="2.1"/></g><rect class="st4" height="4" width="13" x="42" y="52"/><rect class="st4" height="4" width="13" x="42" y="47"/><rect class="st4" height="4" width="13" x="27" y="52"/><rect class="st4" height="4" width="13" x="27" y="47"/><rect class="st4" height="4" width="13" x="42" y="42"/><path class="st4" d="M48.5,41L48.5,41c-3.6,0-6.5-2.9-6.5-6.5v0c0-3.6,2.9-6.5,6.5-6.5h0c3.6,0,6.5,2.9,6.5,6.5v0  C55,38.1,52.1,41,48.5,41z"/><g><path class="st2" d="M20.6,55.4c-0.4,0.4-0.9,0.4-1.3,0l-7.8-7.8c-2.2-2.2-2.1-5.7,0.1-7.8c2.2-2,5.6-1.8,7.8,0.3l0.5,0.5l0.5-0.5   c2.1-2.1,5.6-2.3,7.8-0.3c2.2,2.1,2.3,5.7,0.1,7.8L20.6,55.4z"/></g></svg>