<svg enable-background="new 0 0 64 64" viewBox="0 0 64 64" xmlns="http://www.w3.org/2000/svg"><circle cx="32" cy="32" fill="#d9dce1" r="23"/><path d="m23.1 10.8c-5.2 2.2-9.4 6.1-11.8 11.1 1 1.4 1.8 3 1.8 4.4 0 2.5-2.3 3.6-4.1 4.1v1.6c0 3.7.9 7.2 2.4 10.2 3.4 3.4 8.2 7.3 8.7 4.3.4-2.3-.7-5.1 2.4-7.6s2.3-3.2.7-4.1-1.6-2-1.7-3.6c-.1-1.5-1.6-2.2-3.5-2.6s-3.1-2-2.9-2.5 1.9-1.6 4.3-1.9c2.4-.2 4.6-.7 4.8-1.8.3-1.1-1.1-2.5.7-1.6.5.3 1.6 1.1 2.7.8 1.2-.2.9-3.7 1.1-5.4s1.7-.7 1.4.8.4 2.1 1.9.9c1.5-1.3.5-3.3-.6-4.4-2.7-2.5-5.7-2.9-8.3-2.7z" fill="#f04f4f"/><path d="m54.9 29.6c-.6-5.9-3.4-11.1-7.6-14.8-1.3-.2-2.5-.4-4.3-.3-2.7.1-3.6.5-3.1 1.8s-.6 3.2-2.1 3.9c-1.5.6-.8 1.5-.6 2.7s-.2 1.4-2 1.3-2.1 3.4-1.1 3.6 3.9 1.5 4.4-.1.8-2.4 2.3-1 3.5 1 5 .4 3-2.5 3.3-1-1.9 3.8-5 3.5-7.2-.3-8.6.3c-1.5.6-4.1 4-3.6 6.4.5 2.3 2.7 2.5 6.7 2.9s1.6 3 1.1 6.4c-1 7.2 4.1 3.4 7.2-.1 3.1-3.4 4.8-5.5 3.5-10.3-1-3.2 2.3-4.9 4.5-5.6z" fill="#f04f4f"/><g fill="#ed2323"><path d="m21.4 32.3-3.5 3.5-3.5-3.5c-2-2-2-5.1 0-7.1 2-2 5.1-2 7.1 0 1.8 2 1.8 5.1-.1 7.1z"/><path d="m28.5 15.5-3.5 3.6-3.5-3.5c-2-2-2-5.1 0-7.1 2-2 5.1-2 7.1 0 1.9 1.9 1.9 5.1-.1 7z"/><path d="m50.5 21.6-5.5 5.5-5.5-5.5c-3-3-3-8 0-11 3-3 8-3 11 0 3.1 3 3.1 7.9 0 11z"/></g><path d="m45.3 20.8c-.2.2-.4.2-.6 0l-3.5-3.5c-1-1-1-2.6.1-3.5 1-.9 2.5-.8 3.5.1l.2.2.2-.2c1-.9 2.5-1 3.5-.1 1 1 1 2.5.1 3.5z" fill="#fff"/></svg>