<?xml version="1.0" ?><svg id="Layer_1" style="enable-background:new 0 0 64 64;" version="1.1" viewBox="0 0 64 64" xml:space="preserve" xmlns="http://www.w3.org/2000/svg" xmlns:xlink="http://www.w3.org/1999/xlink"><style type="text/css">
	.st0{fill:#585980;}
	.st1{fill:#FFFFFF;}
	.st2{fill:#2F3061;}
	.st3{fill:none;stroke:#D9DCE1;stroke-width:4;stroke-linecap:round;stroke-miterlimit:10;}
	.st4{fill:#D9DCE1;}
	.st5{fill:none;stroke:#D9DCE1;stroke-width:3;stroke-linecap:round;stroke-linejoin:round;stroke-miterlimit:10;}
	.st6{fill:none;stroke:#FFFFFF;stroke-width:2;stroke-miterlimit:10;}
	.st7{fill:none;stroke:#D9DCE1;stroke-width:2;stroke-linecap:square;stroke-miterlimit:10;}
	.st8{fill:none;stroke:#D9DCE1;stroke-width:2;stroke-linecap:square;stroke-miterlimit:10;stroke-dasharray:0.1022,6.1323;}
	.st9{fill:none;stroke:#585980;stroke-width:2;stroke-miterlimit:10;}
	.st10{fill:none;stroke:#2F3061;stroke-width:4;stroke-linecap:round;stroke-miterlimit:10;}
	.st11{fill:none;stroke:#2F3061;stroke-width:3;stroke-miterlimit:10;}
	.st12{fill:none;stroke:#2F3061;stroke-width:2;stroke-miterlimit:10;}
	.st13{fill:none;stroke:#D9DCE1;stroke-width:2;stroke-miterlimit:10;}
	.st14{fill-rule:evenodd;clip-rule:evenodd;fill:#585980;}
	.st15{fill:none;stroke:#2F3061;stroke-width:6;stroke-linecap:round;stroke-miterlimit:10;}
	.st16{fill-rule:evenodd;clip-rule:evenodd;fill:#2F3061;}
	.st17{fill:none;stroke:#2F3061;stroke-width:3;stroke-linecap:round;stroke-miterlimit:10;}
	.st18{fill:none;stroke:#D9DCE1;stroke-width:4;stroke-miterlimit:10;}
	.st19{fill:none;stroke:#585980;stroke-width:9.5204;stroke-linecap:round;stroke-miterlimit:10;}
	.st20{fill:none;stroke:#D9DCE1;stroke-width:9.5204;stroke-linecap:round;stroke-miterlimit:10;}
	.st21{fill:none;stroke:#2F3061;stroke-width:2;stroke-miterlimit:10;stroke-dasharray:2,2;}
	.st22{fill:none;stroke:#D9DCE1;stroke-width:16.2382;stroke-linecap:round;stroke-miterlimit:10;}
	.st23{fill:none;stroke:#D9DCE1;stroke-width:15.9437;stroke-linecap:square;stroke-miterlimit:10;}
	.st24{fill:none;stroke:#77B5D1;stroke-width:17.7335;stroke-linecap:round;stroke-miterlimit:10;}
	.st25{fill:none;stroke:#585980;stroke-width:17.9367;stroke-linecap:square;stroke-miterlimit:10;}
</style><circle class="st4" cx="46.2" cy="33.3" r="5.7"/><path class="st4" d="M55.6,48.7c0-0.6,0-0.3,0-1.3c0-1-0.2-1.9-0.7-2.7c-1.6-2.6-4.9-3.6-8.7-3.6s-7.2,1-8.7,3.6  c-0.5,0.8-0.7,1.8-0.7,2.7c0,1.3,0,6.7,0,9.3L55.6,48.7z"/><circle class="st4" cx="17.8" cy="33.3" r="5.7"/><path class="st4" d="M17.8,41.1c-3.9,0-7.2,1-8.7,3.6c-0.5,0.8-0.7,1.8-0.7,2.7c0,1,0,0.7,0,1.3l18.9,8c0-2.6,0-8,0-9.3  c0-1-0.2-1.9-0.7-2.7C25,42.1,21.7,41.1,17.8,41.1z"/><circle class="st0" cx="32" cy="28" r="7.4"/><path class="st0" d="M32,58.7l12.4-5.2c0-2.3,0-5.5,0-7c0-1.4-0.4-2.8-1.2-4c-2.1-3.1-6.3-4.4-11.2-4.4c-4.9,0-9.1,1.3-11.2,4.4  c-0.8,1.2-1.2,2.6-1.2,4c0,1.5,0,4.6,0,6.9L32,58.7z"/><g><path class="st2" d="M32.4,17.6c-0.2,0.2-0.6,0.2-0.9,0l-5.3-5.3c-1.5-1.5-1.5-3.9,0.1-5.4c1.5-1.4,3.9-1.3,5.3,0.2L32,7.4L32.4,7   c1.4-1.4,3.8-1.6,5.3-0.2c1.5,1.5,1.6,3.9,0.1,5.4L32.4,17.6z"/></g></svg>