<?xml version="1.0" ?><svg id="Layer_1" style="enable-background:new 0 0 64 64;" version="1.1" viewBox="0 0 64 64" xml:space="preserve" xmlns="http://www.w3.org/2000/svg" xmlns:xlink="http://www.w3.org/1999/xlink"><style type="text/css">
	.st0{fill:#585980;}
	.st1{fill:#FFFFFF;}
	.st2{fill:#2F3061;}
	.st3{fill:none;stroke:#D9DCE1;stroke-width:4;stroke-linecap:round;stroke-miterlimit:10;}
	.st4{fill:#D9DCE1;}
	.st5{fill:none;stroke:#D9DCE1;stroke-width:3;stroke-linecap:round;stroke-linejoin:round;stroke-miterlimit:10;}
	.st6{fill:none;stroke:#FFFFFF;stroke-width:2;stroke-miterlimit:10;}
	.st7{fill:none;stroke:#D9DCE1;stroke-width:2;stroke-linecap:square;stroke-miterlimit:10;}
	.st8{fill:none;stroke:#D9DCE1;stroke-width:2;stroke-linecap:square;stroke-miterlimit:10;stroke-dasharray:0.1022,6.1323;}
	.st9{fill:none;stroke:#585980;stroke-width:2;stroke-miterlimit:10;}
	.st10{fill:none;stroke:#2F3061;stroke-width:4;stroke-linecap:round;stroke-miterlimit:10;}
	.st11{fill:none;stroke:#2F3061;stroke-width:3;stroke-miterlimit:10;}
	.st12{fill:none;stroke:#2F3061;stroke-width:2;stroke-miterlimit:10;}
	.st13{fill:none;stroke:#D9DCE1;stroke-width:2;stroke-miterlimit:10;}
	.st14{fill-rule:evenodd;clip-rule:evenodd;fill:#585980;}
	.st15{fill:none;stroke:#2F3061;stroke-width:6;stroke-linecap:round;stroke-miterlimit:10;}
	.st16{fill-rule:evenodd;clip-rule:evenodd;fill:#2F3061;}
	.st17{fill:none;stroke:#2F3061;stroke-width:3;stroke-linecap:round;stroke-miterlimit:10;}
	.st18{fill:none;stroke:#D9DCE1;stroke-width:4;stroke-miterlimit:10;}
	.st19{fill:none;stroke:#585980;stroke-width:9.5204;stroke-linecap:round;stroke-miterlimit:10;}
	.st20{fill:none;stroke:#D9DCE1;stroke-width:9.5204;stroke-linecap:round;stroke-miterlimit:10;}
	.st21{fill:none;stroke:#2F3061;stroke-width:2;stroke-miterlimit:10;stroke-dasharray:2,2;}
	.st22{fill:none;stroke:#D9DCE1;stroke-width:16.2382;stroke-linecap:round;stroke-miterlimit:10;}
	.st23{fill:none;stroke:#D9DCE1;stroke-width:15.9437;stroke-linecap:square;stroke-miterlimit:10;}
	.st24{fill:none;stroke:#77B5D1;stroke-width:17.7335;stroke-linecap:round;stroke-miterlimit:10;}
	.st25{fill:none;stroke:#585980;stroke-width:17.9367;stroke-linecap:square;stroke-miterlimit:10;}
</style><circle class="st4" cx="32" cy="32" r="23"/><path class="st0" d="M23.1,10.8c-5.2,2.2-9.4,6.1-11.8,11.1l0,0c1,1.4,1.8,3,1.8,4.4c0,2.5-2.3,3.6-4.1,4.1c0,0,0,0,0,0  C9,30.9,9,31.4,9,32c0,3.7,0.9,7.2,2.4,10.2c3.4,3.4,8.2,7.3,8.7,4.3c0.4-2.3-0.7-5.1,2.4-7.6s2.3-3.2,0.7-4.1  c-1.6-0.9-1.6-2-1.7-3.6c-0.1-1.5-1.6-2.2-3.5-2.6c-1.9-0.4-3.1-2-2.9-2.5s1.9-1.6,4.3-1.9c2.4-0.2,4.6-0.7,4.8-1.8  c0.3-1.1-1.1-2.5,0.7-1.6c0.5,0.3,1.6,1.1,2.7,0.8c1.2-0.2,0.9-3.7,1.1-5.4c0.2-1.7,1.7-0.7,1.4,0.8s0.4,2.1,1.9,0.9  c1.5-1.3,0.5-3.3-0.6-4.4C28.7,11,25.7,10.6,23.1,10.8z"/><path class="st0" d="M54.9,29.6c-0.6-5.9-3.4-11.1-7.6-14.8c-1.3-0.2-2.5-0.4-4.3-0.3c-2.7,0.1-3.6,0.5-3.1,1.8s-0.6,3.2-2.1,3.9  c-1.5,0.6-0.8,1.5-0.6,2.7c0.2,1.2-0.2,1.4-2,1.3c-1.8-0.1-2.1,3.4-1.1,3.6c1,0.2,3.9,1.5,4.4-0.1c0.5-1.6,0.8-2.4,2.3-1  s3.5,1,5,0.4s3-2.5,3.3-1c0.3,1.5-1.9,3.8-5,3.5s-7.2-0.3-8.6,0.3c-1.5,0.6-4.1,4-3.6,6.4c0.5,2.3,2.7,2.5,6.7,2.9s1.6,3,1.1,6.4  c-1,7.2,4.1,3.4,7.2-0.1c3.1-3.4,4.8-5.5,3.5-10.3C49.4,32,52.7,30.3,54.9,29.6z"/><path class="st2" d="M21.4,32.3l-3.5,3.5l-3.5-3.5c-2-2-2-5.1,0-7.1l0,0c2-2,5.1-2,7.1,0l0,0C23.3,27.2,23.3,30.3,21.4,32.3z"/><path class="st2" d="M28.5,15.5L25,19.1l-3.5-3.5c-2-2-2-5.1,0-7.1l0,0c2-2,5.1-2,7.1,0l0,0C30.5,10.4,30.5,13.6,28.5,15.5z"/><path class="st2" d="M50.5,21.6L45,27.1l-5.5-5.5c-3-3-3-8,0-11l0,0c3-3,8-3,11,0l0,0C53.6,13.6,53.6,18.5,50.5,21.6z"/><g><path class="st1" d="M45.3,20.8c-0.2,0.2-0.4,0.2-0.6,0l-3.5-3.5c-1-1-1-2.6,0.1-3.5c1-0.9,2.5-0.8,3.5,0.1l0.2,0.2l0.2-0.2   c1-0.9,2.5-1,3.5-0.1c1,1,1,2.5,0.1,3.5L45.3,20.8z"/></g></svg>