<?xml version="1.0" ?><svg id="Layer_1" style="enable-background:new 6 13 52 37;" version="1.1" viewBox="6 13 52 37" xml:space="preserve" xmlns="http://www.w3.org/2000/svg" xmlns:xlink="http://www.w3.org/1999/xlink"><style type="text/css">
	.st0{fill:#56AAFF;}
	.st1{fill:#FFFFFF;}
	.st2{fill:#0478ED;}
	.st3{fill:none;stroke:#D9DCE1;stroke-width:4;stroke-linecap:round;stroke-miterlimit:10;}
	.st4{fill:#D9DCE1;}
	.st5{fill:none;stroke:#D9DCE1;stroke-width:3;stroke-linecap:round;stroke-linejoin:round;stroke-miterlimit:10;}
	.st6{fill:none;stroke:#FFFFFF;stroke-width:2;stroke-miterlimit:10;}
	.st7{fill:none;stroke:#D9DCE1;stroke-width:2;stroke-linecap:square;stroke-miterlimit:10;}
	.st8{fill:none;stroke:#D9DCE1;stroke-width:2;stroke-linecap:square;stroke-miterlimit:10;stroke-dasharray:0.1022,6.1323;}
	.st9{fill:none;stroke:#56AAFF;stroke-width:2;stroke-miterlimit:10;}
	.st10{fill:none;stroke:#0478ED;stroke-width:4;stroke-linecap:round;stroke-miterlimit:10;}
	.st11{fill:none;stroke:#0478ED;stroke-width:3;stroke-miterlimit:10;}
	.st12{fill:none;stroke:#0478ED;stroke-width:2;stroke-miterlimit:10;}
	.st13{fill:none;stroke:#D9DCE1;stroke-width:2;stroke-miterlimit:10;}
	.st14{fill-rule:evenodd;clip-rule:evenodd;fill:#56AAFF;}
	.st15{fill:none;stroke:#0478ED;stroke-width:6;stroke-linecap:round;stroke-miterlimit:10;}
	.st16{fill-rule:evenodd;clip-rule:evenodd;fill:#0478ED;}
	.st17{fill:none;stroke:#0478ED;stroke-width:3;stroke-linecap:round;stroke-miterlimit:10;}
	.st18{fill:none;stroke:#D9DCE1;stroke-width:4;stroke-miterlimit:10;}
	.st19{fill:none;stroke:#56AAFF;stroke-width:9.5204;stroke-linecap:round;stroke-miterlimit:10;}
	.st20{fill:none;stroke:#D9DCE1;stroke-width:9.5204;stroke-linecap:round;stroke-miterlimit:10;}
	.st21{fill:none;stroke:#0478ED;stroke-width:2;stroke-miterlimit:10;stroke-dasharray:2,2;}
	.st22{fill:none;stroke:#D9DCE1;stroke-width:16.2382;stroke-linecap:round;stroke-miterlimit:10;}
	.st23{fill:none;stroke:#D9DCE1;stroke-width:15.9437;stroke-linecap:square;stroke-miterlimit:10;}
	.st24{fill:none;stroke:#77B5D1;stroke-width:17.7335;stroke-linecap:round;stroke-miterlimit:10;}
	.st25{fill:none;stroke:#56AAFF;stroke-width:17.9367;stroke-linecap:square;stroke-miterlimit:10;}
</style><g><path class="st0" d="M33.3,49c-0.7,0.7-1.9,0.7-2.7,0l-16-16c-4.5-4.5-4.4-11.8,0.2-16.1c4.5-4.2,11.6-3.8,16,0.6l1.1,1.1l1.1-1.1   c4.4-4.4,11.5-4.8,16-0.6c4.6,4.4,4.7,11.7,0.2,16.1L33.3,49z"/></g><g><path class="st4" d="M15.4,33.8l-4.2,2.4c0.2,0.2-3,3.8-3.4,4.9l0,0c-0.2,0.6-1.1,1.3-1.1,1.3L6,43.2c0,0,6.9,6.9,6.9,6.9L14,49   c0,0,3.9-2.2,5.5-3.7l3.7-3.7L15.4,33.8z"/><g><path class="st4" d="M11.4,36.6l8.8-8.4c0.5-0.5,1.3-0.5,1.8,0c0.5,0.5,0.5,1.3,0,1.7l-8.4,8.8c-0.6,0.6-1.5,0.6-2.1,0    C10.8,38.2,10.8,37.2,11.4,36.6C11.3,36.6,11.4,36.6,11.4,36.6z"/></g><g><path class="st4" d="M17,35.3l7.9-7.5c0.5-0.5,1.3-0.5,1.8,0c0.5,0.5,0.5,1.2,0,1.7l-7.5,7.9C18.5,38,17.6,38,17,37.5    C16.3,36.9,16.3,35.9,17,35.3C16.9,35.3,16.9,35.3,17,35.3z"/></g><g><path class="st4" d="M19.2,37.5l7.9-7.5c0.5-0.5,1.3-0.5,1.8,0c0.5,0.5,0.5,1.2,0,1.7l-7.5,7.9c-0.6,0.6-1.5,0.6-2.1,0.1    C18.6,39.1,18.6,38.2,19.2,37.5C19.1,37.5,19.2,37.5,19.2,37.5z"/></g><g><path class="st4" d="M20.6,40.6l6.1-5.9c0.4-0.4,1.1-0.4,1.6,0c0.4,0.4,0.4,1.1,0,1.6l-5.9,6.1c-0.5,0.5-1.2,0.5-1.7,0    C20.1,41.9,20.1,41.1,20.6,40.6C20.6,40.7,20.6,40.6,20.6,40.6z"/></g><g><path class="st4" d="M8.1,41.6l0.2-2.8c0.1-1.2,0.4-2.3,0.8-3.4c0.2-0.5,0.5-1,0.9-1.5c0.2-0.2,0.3-0.4,0.5-0.6l0.4-0.6l1.8-2.2    c0.4-0.6,1.3-0.7,1.8-0.2c0.5,0.4,0.6,1.1,0.3,1.7l-1.4,2.5L13,35l-0.3,0.6c-0.2,0.3-0.3,0.7-0.4,1c-0.2,0.7-0.3,1.4-0.2,2.2    l0.2,2.8c0.1,1.2-0.8,2.2-2,2.2c-1.2,0.1-2.2-0.8-2.2-2C8.1,41.8,8.1,41.7,8.1,41.6z"/></g></g><g><path class="st4" d="M48.6,33.8l4.2,2.4c-0.2,0.2,3,3.8,3.4,4.9v0c0.2,0.6,1.1,1.3,1.1,1.3l0.8,0.8c0,0-6.9,6.9-6.9,6.9L50,49   c0,0-3.9-2.2-5.5-3.7l-3.7-3.7L48.6,33.8z"/><g><path class="st4" d="M50.5,38.7l-8.4-8.8c-0.5-0.5-0.5-1.3,0-1.8c0.5-0.5,1.3-0.5,1.7,0l8.8,8.4c0.6,0.6,0.6,1.5,0,2.1    C52.1,39.3,51.1,39.3,50.5,38.7C50.5,38.7,50.5,38.7,50.5,38.7z"/></g><g><path class="st4" d="M44.9,37.4l-7.5-7.9c-0.5-0.5-0.5-1.3,0-1.8c0.5-0.5,1.2-0.5,1.7,0l7.9,7.5c0.6,0.6,0.6,1.5,0.1,2.1    S45.6,38,44.9,37.4C44.9,37.5,44.9,37.4,44.9,37.4z"/></g><g><path class="st4" d="M42.7,39.6l-7.5-7.9c-0.5-0.5-0.5-1.3,0-1.8c0.5-0.5,1.2-0.5,1.7,0l7.9,7.5c0.6,0.6,0.6,1.5,0.1,2.1    C44.3,40.3,43.3,40.3,42.7,39.6C42.7,39.7,42.7,39.7,42.7,39.6z"/></g><g><path class="st4" d="M41.7,42.4l-5.9-6.1c-0.4-0.4-0.4-1.1,0-1.6c0.4-0.4,1.1-0.4,1.6,0l6.1,5.9c0.5,0.5,0.5,1.2,0,1.7    C43,42.8,42.2,42.8,41.7,42.4C41.7,42.4,41.7,42.4,41.7,42.4z"/></g><g><path class="st4" d="M51.7,41.6l0.2-2.8c0.1-0.7,0-1.5-0.2-2.2c-0.1-0.4-0.2-0.7-0.4-1L51,35l-0.4-0.6l-1.4-2.5    c-0.4-0.6-0.1-1.4,0.5-1.8c0.6-0.3,1.3-0.2,1.7,0.3l1.8,2.2l0.4,0.6c0.1,0.2,0.3,0.4,0.5,0.6c0.3,0.5,0.6,1,0.9,1.5    c0.5,1.1,0.8,2.2,0.8,3.4l0.2,2.8c0.1,1.2-0.8,2.2-2,2.2c-1.2,0.1-2.2-0.8-2.2-2C51.7,41.8,51.7,41.7,51.7,41.6z"/></g></g></svg>