<svg enable-background="new 6 13 52 37" viewBox="6 13 52 37" xmlns="http://www.w3.org/2000/svg"><path d="m33.3 49c-.7.7-1.9.7-2.7 0l-16-16c-4.5-4.5-4.4-11.8.2-16.1 4.5-4.2 11.6-3.8 16 .6l1.1 1.1 1.1-1.1c4.4-4.4 11.5-4.8 16-.6 4.6 4.4 4.7 11.7.2 16.1z" fill="#56aaff"/><g fill="#d9dce1"><path d="m15.4 33.8-4.2 2.4c.2.2-3 3.8-3.4 4.9-.2.6-1.1 1.3-1.1 1.3l-.7.8s6.9 6.9 6.9 6.9l1.1-1.1s3.9-2.2 5.5-3.7l3.7-3.7z"/><path d="m11.4 36.6 8.8-8.4c.5-.5 1.3-.5 1.8 0s.5 1.3 0 1.7l-8.4 8.8c-.6.6-1.5.6-2.1 0-.7-.5-.7-1.5-.1-2.1-.1 0 0 0 0 0z"/><path d="m17 35.3 7.9-7.5c.5-.5 1.3-.5 1.8 0s.5 1.2 0 1.7l-7.5 7.9c-.7.6-1.6.6-2.2.1-.7-.6-.7-1.6 0-2.2-.1 0-.1 0 0 0z"/><path d="m19.2 37.5 7.9-7.5c.5-.5 1.3-.5 1.8 0s.5 1.2 0 1.7l-7.5 7.9c-.6.6-1.5.6-2.1.1-.7-.6-.7-1.5-.1-2.2-.1 0 0 0 0 0z"/><path d="m20.6 40.6 6.1-5.9c.4-.4 1.1-.4 1.6 0 .4.4.4 1.1 0 1.6l-5.9 6.1c-.5.5-1.2.5-1.7 0-.6-.5-.6-1.3-.1-1.8z"/><path d="m8.1 41.6.2-2.8c.1-1.2.4-2.3.8-3.4.2-.5.5-1 .9-1.5.2-.2.3-.4.5-.6l.4-.6 1.8-2.2c.4-.6 1.3-.7 1.8-.2.5.4.6 1.1.3 1.7l-1.4 2.5-.4.5-.3.6c-.2.3-.3.7-.4 1-.2.7-.3 1.4-.2 2.2l.2 2.8c.1 1.2-.8 2.2-2 2.2-1.2.1-2.2-.8-2.2-2 0 0 0-.1 0-.2z"/><path d="m48.6 33.8 4.2 2.4c-.2.2 3 3.8 3.4 4.9.2.6 1.1 1.3 1.1 1.3l.8.8s-6.9 6.9-6.9 6.9l-1.2-1.1s-3.9-2.2-5.5-3.7l-3.7-3.7z"/><path d="m50.5 38.7-8.4-8.8c-.5-.5-.5-1.3 0-1.8s1.3-.5 1.7 0l8.8 8.4c.6.6.6 1.5 0 2.1-.5.7-1.5.7-2.1.1z"/><path d="m44.9 37.4-7.5-7.9c-.5-.5-.5-1.3 0-1.8s1.2-.5 1.7 0l7.9 7.5c.6.6.6 1.5.1 2.1s-1.5.7-2.2.1z"/><path d="m42.7 39.6-7.5-7.9c-.5-.5-.5-1.3 0-1.8s1.2-.5 1.7 0l7.9 7.5c.6.6.6 1.5.1 2.1-.6.8-1.6.8-2.2.1 0 .1 0 .1 0 0z"/><path d="m41.7 42.4-5.9-6.1c-.4-.4-.4-1.1 0-1.6.4-.4 1.1-.4 1.6 0l6.1 5.9c.5.5.5 1.2 0 1.7s-1.3.5-1.8.1z"/><path d="m51.7 41.6.2-2.8c.1-.7 0-1.5-.2-2.2-.1-.4-.2-.7-.4-1l-.3-.6-.4-.6-1.4-2.5c-.4-.6-.1-1.4.5-1.8.6-.3 1.3-.2 1.7.3l1.8 2.2.4.6c.1.2.3.4.5.6.3.5.6 1 .9 1.5.5 1.1.8 2.2.8 3.4l.2 2.8c.1 1.2-.8 2.2-2 2.2-1.2.1-2.2-.8-2.2-2-.1.1-.1 0-.1-.1z"/></g></svg>