<svg enable-background="new 0 0 64 64" viewBox="0 0 64 64" xmlns="http://www.w3.org/2000/svg"><path d="m54.8 29.5-35.7 15.6c-1 .5-2.2 0-2.7-1.1l-8.2-18.8c-.5-1 0-2.2 1.1-2.7l35.6-15.6c1-.5 2.2 0 2.7 1.1l8.2 18.8c.5 1 0 2.2-1 2.7z" fill="#56aaff"/><circle cx="32" cy="26" fill="#0478ed" r="9.2"/><circle cx="45.2" cy="20.2" fill="#0478ed" r="2.1"/><circle cx="18.8" cy="31.8" fill="#0478ed" r="2.1"/><g fill="#d9dce1"><path d="m42 52h13v4h-13z"/><path d="m42 47h13v4h-13z"/><path d="m27 52h13v4h-13z"/><path d="m27 47h13v4h-13z"/><path d="m42 42h13v4h-13z"/><path d="m48.5 41c-3.6 0-6.5-2.9-6.5-6.5 0-3.6 2.9-6.5 6.5-6.5 3.6 0 6.5 2.9 6.5 6.5 0 3.6-2.9 6.5-6.5 6.5z"/></g><path d="m20.6 55.4c-.4.4-.9.4-1.3 0l-7.8-7.8c-2.2-2.2-2.1-5.7.1-7.8 2.2-2 5.6-1.8 7.8.3l.5.5.5-.5c2.1-2.1 5.6-2.3 7.8-.3 2.2 2.1 2.3 5.7.1 7.8z" fill="#0478ed"/></svg>