<svg enable-background="new 0 0 64 64" viewBox="0 0 64 64" xmlns="http://www.w3.org/2000/svg"><g fill="#d9dce1"><circle cx="46.2" cy="33.3" r="5.7"/><path d="m55.6 48.7c0-.6 0-.3 0-1.3s-.2-1.9-.7-2.7c-1.6-2.6-4.9-3.6-8.7-3.6s-7.2 1-8.7 3.6c-.5.8-.7 1.8-.7 2.7v9.3z"/><circle cx="17.8" cy="33.3" r="5.7"/><path d="m17.8 41.1c-3.9 0-7.2 1-8.7 3.6-.5.8-.7 1.8-.7 2.7v1.3l18.9 8c0-2.6 0-8 0-9.3 0-1-.2-1.9-.7-2.7-1.6-2.6-4.9-3.6-8.8-3.6z"/></g><circle cx="32" cy="28" fill="#56aaff" r="7.4"/><path d="m32 58.7 12.4-5.2c0-2.3 0-5.5 0-7 0-1.4-.4-2.8-1.2-4-2.1-3.1-6.3-4.4-11.2-4.4s-9.1 1.3-11.2 4.4c-.8 1.2-1.2 2.6-1.2 4v6.9z" fill="#56aaff"/><path d="m32.4 17.6c-.2.2-.6.2-.9 0l-5.3-5.3c-1.5-1.5-1.5-3.9.1-5.4 1.5-1.4 3.9-1.3 5.3.2l.4.3.4-.4c1.4-1.4 3.8-1.6 5.3-.2 1.5 1.5 1.6 3.9.1 5.4z" fill="#0478ed"/></svg>