<?xml version="1.0" encoding="UTF-8"?>
<svg width="46px" height="46px" viewBox="0 0 46 46" version="1.1" xmlns="http://www.w3.org/2000/svg" xmlns:xlink="http://www.w3.org/1999/xlink">
    <!-- Generator: Sketch 49.3 (51167) - http://www.bohemiancoding.com/sketch -->
    <title>facebook-logo</title>
    <desc>Created with Sketch.</desc>
    <defs></defs>
    <g id="Page-1" stroke="none" stroke-width="1" fill="none" fill-rule="evenodd">
        <g id="Desktop-Thanks" transform="translate(-312.000000, -819.000000)">
            <g id="Text" transform="translate(248.000000, 634.000000)">
                <g id="share-links" transform="translate(5.000000, 185.000000)">
                    <g id="facebook-logo" transform="translate(58.604651, 0.000000)">
                        <ellipse id="Oval-2" fill="#3B5998" cx="23.0558995" cy="22.7115987" rx="22.3977546" ry="22.6034483"></ellipse>
                        <path d="M28.1446256,11.1079488 L25.2432164,11.1034483 C21.9835827,11.1034483 19.8770642,13.1928069 19.8770642,16.4266436 L19.8770642,18.8809931 L16.959827,18.8809931 C16.7077431,18.8809931 16.5036087,19.0785652 16.5036087,19.3222674 L16.5036087,22.8783401 C16.5036087,23.1220424 16.7079759,23.3193895 16.959827,23.3193895 L19.8770642,23.3193895 L19.8770642,32.292493 C19.8770642,32.5361952 20.0811986,32.7335423 20.3332826,32.7335423 L24.1394473,32.7335423 C24.3915312,32.7335423 24.5956656,32.5359702 24.5956656,32.292493 L24.5956656,23.3193895 L28.0065962,23.3193895 C28.2586802,23.3193895 28.4628146,23.1220424 28.4628146,22.8783401 L28.4642112,19.3222674 C28.4642112,19.2052544 28.416029,19.0931918 28.3306044,19.0103826 C28.2451798,18.9275733 28.1287976,18.8809931 28.0077601,18.8809931 L24.5956656,18.8809931 L24.5956656,16.8004104 C24.5956656,15.8003986 24.8421632,15.2927418 26.1896367,15.2927418 L28.14416,15.2920667 C28.3960112,15.2920667 28.6001456,15.0944946 28.6001456,14.8510174 L28.6001456,11.5489981 C28.6001456,11.3057459 28.396244,11.1083988 28.1446256,11.1079488 Z" id="Shape" fill="#FFFFFF" fill-rule="nonzero"></path>
                    </g>
                </g>
            </g>
        </g>
    </g>
</svg>