<?xml version="1.0" encoding="UTF-8"?>
<svg width="46px" height="46px" viewBox="0 0 46 46" version="1.1" xmlns="http://www.w3.org/2000/svg" xmlns:xlink="http://www.w3.org/1999/xlink">
    <!-- Generator: Sketch 49.3 (51167) - http://www.bohemiancoding.com/sketch -->
    <title>twitter-logo-silhouette (1)</title>
    <desc>Created with Sketch.</desc>
    <defs></defs>
    <g id="Page-1" stroke="none" stroke-width="1" fill="none" fill-rule="evenodd">
        <g id="Desktop-Thanks" transform="translate(-253.000000, -819.000000)">
            <g id="Text" transform="translate(248.000000, 634.000000)">
                <g id="share-links" transform="translate(5.000000, 185.000000)">
                    <g id="twitter-logo-silhouette-(1)">
                        <ellipse id="Oval-2" fill="#00ACED" cx="22.8420719" cy="22.7115987" rx="22.3977546" ry="22.6034483"></ellipse>
                        <path d="M35.1954798,15.0888869 C34.3050388,15.4960265 33.3496084,15.7721439 32.3457524,15.8954158 C33.3707577,15.2620466 34.1553735,14.2574344 34.5272438,13.0640393 C33.5657652,13.6505798 32.5044702,14.0764835 31.3736398,14.3073632 C30.4680979,13.3105421 29.1800518,12.6896552 27.7513931,12.6896552 C25.0105347,12.6896552 22.7882075,14.9828291 22.7882075,17.8095145 C22.7882075,18.2104131 22.8320477,18.6019704 22.9167236,18.9763952 C18.7925883,18.762648 15.1355937,16.7237681 12.6880175,13.6256154 C12.260171,14.3806654 12.0167772,15.2604558 12.0167772,16.1995977 C12.0167772,17.9764332 12.8936194,19.5442125 14.2240035,20.4614494 C13.4106484,20.4333848 12.6456795,20.2025051 11.9759809,19.818739 L11.9759809,19.8827 C11.9759809,22.363066 13.6873275,24.4331513 15.9564992,24.9042928 C15.5407492,25.0197326 15.1023479,25.0836936 14.6488061,25.0836936 C14.3283264,25.0836936 14.0184015,25.0509381 13.714525,24.9885272 C14.3464317,27.0243069 16.1787438,28.5047108 18.3496804,28.5452983 C16.6519326,29.9180943 14.5112374,30.7339645 12.186129,30.7339645 C11.7855195,30.7339645 11.3909187,30.7090001 11.0024058,30.6637623 C13.1990377,32.1192427 15.8068735,32.9678683 18.6097168,32.9678683 C27.7393756,32.9678683 32.7297983,25.1648279 32.7297983,18.3976459 L32.7131556,17.7346622 C33.688233,17.0170179 34.5317899,16.1153633 35.1954798,15.0888869 Z" id="Shape" fill="#FFFFFF" fill-rule="nonzero"></path>
                    </g>
                </g>
            </g>
        </g>
    </g>
</svg>